<svg width="321" height="274" viewBox="0 0 321 274" fill="none" xmlns="http://www.w3.org/2000/svg">
<rect width="321" height="274" fill="#1E1E1E"/>
<rect x="75" y="10" width="172" height="257" fill="#D9D9D9"/>
<rect x="86" y="48" width="16" height="35" fill="#1E1E1E"/>
<rect x="86" y="48" width="16" height="35" fill="#1E1E1E"/>
<rect x="86" y="96" width="16" height="35" fill="#1E1E1E"/>
<rect x="86" y="144" width="16" height="35" fill="#1E1E1E"/>
<rect x="86" y="192" width="16" height="35" fill="#1E1E1E"/>
<rect x="86" y="239" width="16" height="35" fill="#1E1E1E"/>
<rect x="86" width="16" height="35" fill="#1E1E1E"/>
<rect x="221" y="48" width="16" height="35" fill="#1E1E1E"/>
<rect x="221" y="96" width="16" height="35" fill="#1E1E1E"/>
<rect x="221" y="144" width="16" height="35" fill="#1E1E1E"/>
<rect x="221" y="192" width="16" height="35" fill="#1E1E1E"/>
<rect x="221" y="239" width="16" height="35" fill="#1E1E1E"/>
<rect x="221" width="16" height="35" fill="#1E1E1E"/>
<ellipse cx="160.642" cy="143.578" rx="170.5" ry="76" transform="rotate(-23 160.642 143.578)" fill="#B42B2B"/>
<ellipse cx="154.707" cy="129.01" rx="139.5" ry="62.1817" transform="rotate(-23 154.707 129.01)" fill="#D9D9D9"/>
<ellipse cx="158.739" cy="135.329" rx="124" ry="55.2727" transform="rotate(-23 158.739 135.329)" fill="#1E1E1E"/>
<rect x="86" y="48" width="16" height="35" fill="#1E1E1E"/>
<rect x="191" y="35" width="56" height="24" fill="#D9D9D9"/>
<rect x="221" y="48" width="16" height="35" fill="#1E1E1E"/>
</svg>
