<svg width="331" height="205" viewBox="0 0 331 205" fill="none" xmlns="http://www.w3.org/2000/svg">
<path fill-rule="evenodd" clip-rule="evenodd" d="M219 21H133V39C137.971 39 142 43.0294 142 48C142 52.9706 137.971 57 133 57V75C137.971 75 142 79.0294 142 84C142 88.9706 137.971 93 133 93V111C137.971 111 142 115.029 142 120C142 124.971 137.971 129 133 129V147C137.971 147 142 151.029 142 156C142 160.971 137.971 165 133 165V183H219V21Z" fill="#D9D9D9"/>
<path fill-rule="evenodd" clip-rule="evenodd" d="M330.354 102.53L227.823 0L141.763 86.0603C140.986 89.3763 138.376 91.9865 135.06 92.7631L126 101.823L135.54 111.363C138.468 112.223 140.777 114.532 141.637 117.46L228.53 204.354L330.354 102.53Z" fill="#D9D9D9"/>
<rect x="228.53" y="19.0919" width="27" height="13" transform="rotate(45 228.53 19.0919)" fill="#1B1818"/>
<rect x="293.584" y="84.1457" width="27" height="13" transform="rotate(45 293.584 84.1457)" fill="#1B1818"/>
<rect x="275.2" y="102.53" width="27" height="13" transform="rotate(45 275.2 102.53)" fill="#1B1818"/>
<rect x="210.146" y="37.4767" width="27" height="13" transform="rotate(45 210.146 37.4767)" fill="#1B1818"/>
<rect x="191.761" y="55.8614" width="27" height="13" transform="rotate(45 191.761 55.8614)" fill="#1B1818"/>
<rect x="256.815" y="120.915" width="27" height="13" transform="rotate(45 256.815 120.915)" fill="#1B1818"/>
<rect x="238.43" y="139.3" width="27" height="13" transform="rotate(45 238.43 139.3)" fill="#1B1818"/>
<rect x="173.376" y="74.2462" width="27" height="13" transform="rotate(45 173.376 74.2462)" fill="#1B1818"/>
<rect x="220.045" y="157.685" width="27" height="13" transform="rotate(45 220.045 157.685)" fill="#1B1818"/>
<rect x="44" y="21" width="97" height="18" fill="#D9D9D9"/>
<rect x="154.991" y="92.631" width="27" height="13" transform="rotate(45 154.991 92.631)" fill="#1B1818"/>
<path d="M52 30C52 34.9706 47.9706 39 43 39C38.0294 39 34 34.9706 34 30C34 25.0294 38.0294 21 43 21C47.9706 21 52 25.0294 52 30Z" fill="#D9D9D9"/>
<rect x="9" y="57" width="124" height="18" fill="#D9D9D9"/>
<rect x="89" y="93" width="44" height="18" fill="#D9D9D9"/>
<path d="M18 66C18 70.9706 13.9706 75 9 75C4.02944 75 0 70.9706 0 66C0 61.0294 4.02944 57 9 57C13.9706 57 18 61.0294 18 66Z" fill="#D9D9D9"/>
<rect x="62" y="165" width="79" height="18" fill="#D9D9D9"/>
<path d="M71 174C71 178.971 66.9706 183 62 183C57.0294 183 53 178.971 53 174C53 169.029 57.0294 165 62 165C66.9706 165 71 169.029 71 174Z" fill="#D9D9D9"/>
<rect x="36" y="129" width="97" height="18" fill="#D9D9D9"/>
<path d="M44 138C44 142.971 39.9706 147 35 147C30.0294 147 26 142.971 26 138C26 133.029 30.0294 129 35 129C39.9706 129 44 133.029 44 138Z" fill="#D9D9D9"/>
<path d="M98 102C98 106.971 93.9706 111 89 111C84.0294 111 80 106.971 80 102C80 97.0294 84.0294 93 89 93C93.9706 93 98 97.0294 98 102Z" fill="#D9D9D9"/>
</svg>
