<?xml version="1.0" standalone="no"?>
<!DOCTYPE svg PUBLIC "-//W3C//DTD SVG 20010904//EN"
 "http://www.w3.org/TR/2001/REC-SVG-20010904/DTD/svg10.dtd">
<svg version="1.0" xmlns="http://www.w3.org/2000/svg"
 width="320.000000pt" height="320.000000pt" viewBox="0 0 320.000000 320.000000"
 preserveAspectRatio="xMidYMid meet">

<g transform="translate(0.000000,320.000000) scale(0.100000,-0.100000)"
fill="#000000" stroke="none">
<path d="M575 3148 c-4 -9 -4 -447 -2 -974 3 -831 6 -973 20 -1062 67 -415
209 -727 432 -947 80 -78 171 -149 151 -117 -4 6 -41 60 -82 119 -90 129 -177
301 -200 398 -19 77 -22 226 -7 265 l10 25 249 11 c283 13 262 17 364 -70 35
-30 69 -52 75 -49 5 4 50 34 100 67 l89 61 101 3 c55 1 168 -1 250 -5 l150 -8
-1 -135 c0 -147 -14 -216 -66 -350 -37 -95 -108 -214 -166 -280 -102 -117 16
-34 140 99 183 194 314 468 383 801 24 115 27 155 36 505 10 394 27 1647 23
1653 -1 2 -114 -130 -250 -295 -136 -164 -255 -307 -265 -317 -18 -19 -19 -19
-86 11 -253 115 -558 121 -813 17 -47 -20 -92 -38 -101 -40 -17 -6 -28 7 -358
421 -179 224 -169 213 -176 193z m475 -1637 c119 -33 304 -105 323 -124 25
-25 18 -32 -107 -96 -102 -52 -190 -77 -228 -66 -39 12 -167 145 -174 182 -7
38 11 99 34 113 26 15 81 12 152 -9z m1215 13 c38 -15 58 -106 32 -150 -7 -11
-43 -49 -81 -85 -67 -62 -69 -63 -123 -63 -45 1 -74 11 -178 62 -149 73 -156
86 -67 125 32 15 119 47 193 72 127 42 187 53 224 39z"/>
</g>
</svg>
